#!OML:ASF H:\Male1\Project 1\Capture day 1\Session 1\Male1.ASF
:FULLY-SPECIFIED
:DEGREES
550
root 23.1308 15.4055 -0.34836 -536.932 -75.3311 536.01
lowerback 5.72948 1.4209 -2.10812
upperback 2.84835 1.68082 -1.63523
thorax -0.292735 0.792255 -0.595577
lowerneck -3.13503 6.43861 8.94508
upperneck -1.92139 8.24469 -3.0464
head 0.454064 4.04357 -2.34496
rclavicle -9.64106e-015 -5.1684e-015
rhumerus -37.637 15.9892 -88.4854
rradius 43.5542
rwrist -27.2778
rhand -15.9667 -2.00708
rfingers 7.12502
rthumb 10.2323 -31.7382
lclavicle -9.64106e-015 -5.1684e-015
lhumerus -31.4716 18.5894 69.9009
lradius 22.0592
lwrist -7.86105
lhand -22.7037 9.58043
lfingers 7.12502
lthumb 3.72927 39.5275
rfemur -3.27313 10.4042 19.9831
rtibia 30.1123
rfoot -21.4783 -15.5483
rtoes -39.3327
lfemur -8.8821 -14.8098 -20.495
ltibia 26.8745
lfoot -26.1527 28.3079
ltoes 2.99224
551
root 23.0784 15.4118 -0.292384 -537.094 -75.2965 536.143
lowerback 5.80285 1.49327 -2.38335
upperback 2.89414 1.75772 -1.65211
thorax -0.294269 0.826363 -0.464957
lowerneck -3.13367 6.34623 8.91748
upperneck -1.92756 8.122 -2.94757
head 0.43813 3.9822 -2.31173
rclavicle 4.68138e-014 -2.62396e-014
rhumerus -37.3502 16.3102 -88.8148
rradius 43.8236
rwrist -26.8029
rhand -15.7548 -1.79058
rfingers 7.12502
rthumb 10.4367 -31.5115
lclavicle 4.68138e-014 -2.62396e-014
lhumerus -30.7109 17.4991 71.2706
lradius 22.2737
lwrist -7.27279
lhand -22.9214 9.7511
lfingers 7.12502
lthumb 3.51901 39.7018
rfemur -4.24148 9.22975 19.5876
rtibia 31.887
rfoot -20.8807 -14.9547
rtoes -40.1154
lfemur -8.41691 -15.0194 -20.8076
ltibia 26.3973
lfoot -26.4053 28.3912
ltoes 3.7949
552
root 23.0284 15.4185 -0.23866 -536.921 -75.284 535.91
lowerback 5.88753 1.55182 -2.74504
upperback 2.95617 1.80968 -1.69171
thorax -0.287429 0.846394 -0.308109
lowerneck -3.13474 6.27878 8.92039
upperneck -1.95073 8.03127 -2.88638
head 0.422524 3.93611 -2.29541
rclavicle -9.44227e-015 -3.97569e-015
rhumerus -37.0084 16.6497 -89.1317
rradius 44.0948
rwrist -26.2578
rhand -15.6102 -1.57917
rfingers 7.12502
rthumb 10.5762 -31.2931
lclavicle -9.44227e-015 -3.97569e-015
lhumerus -29.8429 16.1351 72.7755
lradius 22.4275
lwrist -6.86839
lhand -23.0788 9.31848
lfingers 7.12502
lthumb 3.36697 39.2716
rfemur -5.32452 8.03663 19.1124
rtibia 33.8627
rfoot -20.2247 -14.4225
rtoes -40.8683
lfemur -7.90837 -15.1948 -21.2135
ltibia 25.8515
lfoot -26.4738 28.5415
ltoes 4.12919
553
root 22.9805 15.4249 -0.188032 -536.527 -75.2975 535.414
lowerback 5.99936 1.59934 -3.15452
upperback 3.03456 1.84137 -1.75456
thorax -0.279462 0.854935 -0.147945
lowerneck -3.14623 6.21946 8.94588
upperneck -1.95296 7.94981 -2.84725
head 0.41808 3.89498 -2.28927
rclavicle -2.84262e-014 1.63003e-014
rhumerus -36.6275 16.9711 -89.4403
rradius 44.3666
rwrist -25.6685
rhand -15.4755 -1.39775
rfingers 7.12502
rthumb 10.7062 -31.105
lclavicle -2.84262e-014 1.63003e-014
lhumerus -28.9086 14.4494 74.3781
lradius 22.5516
lwrist -6.59462
lhand -23.1949 8.64585
lfingers 7.12502
lthumb 3.25492 38.6007
rfemur -6.45358 6.87241 18.6103
rtibia 35.949
rfoot -19.5125 -14.0716
rtoes -41.5854
lfemur -7.34216 -15.3407 -21.692
ltibia 25.2643
lfoot -26.377 28.7556
ltoes 4.02405
554
root 22.9341 15.4306 -0.141295 -536.109 -75.3423 534.845
lowerback 6.14364 1.63289 -3.56477
upperback 3.126 1.85132 -1.82189
thorax -0.275507 0.851849 0.00851654
lowerneck -3.16401 6.1594 8.95456
upperneck -1.91556 7.86763 -2.80003
head 0.426181 3.8547 -2.27663
rclavicle -1.0635e-014 -1.59028e-015
rhumerus -36.2248 17.2806 -89.7411
rradius 44.6394
rwrist -25.0773
rhand -15.3041 -1.25125
rfingers 7.12502
rthumb 10.8715 -30.9498
lclavicle -1.0635e-014 -1.59028e-015
lhumerus -27.9414 12.4357 76.0484
lradius 22.6514
lwrist -6.38671
lhand -23.3703 7.69649
lfingers 7.12502
lthumb 3.08554 37.6539
rfemur -7.56104 5.76964 18.1546
rtibia 38.0346
rfoot -18.7692 -14.011
rtoes -42.2944
lfemur -6.72776 -15.4789 -22.1895
ltibia 24.6765
lfoot -26.1839 29.0041
ltoes 3.66498
555
root 22.8885 15.4354 -0.0990719 -535.84 -75.427 534.388
lowerback 6.31585 1.65147 -3.92842
upperback 3.22481 1.84144 -1.877
thorax -0.277741 0.838913 0.15202
lowerneck -3.19106 6.1087 8.94803
upperneck -1.84327 7.79768 -2.74376
head 0.446652 3.82155 -2.25705
rclavicle 7.7526e-015 -1.98785e-014
rhumerus -35.8179 17.5773 -90.0342
rradius 44.9099
rwrist -24.5228
rhand -15.0776 -1.12187
rfingers 7.12502
rthumb 11.0899 -30.8089
lclavicle 7.7526e-015 -1.98785e-014
lhumerus -26.9829 10.0946 77.7628
lradius 22.7568
lwrist -6.16463
lhand -23.6539 6.83804
lfingers 7.12502
lthumb 2.81159 36.7993
rfemur -8.59201 4.75509 17.8079
rtibia 40.0095
rfoot -18.0807 -14.2844
rtoes -42.9189
lfemur -6.08546 -15.6256 -22.6525
ltibia 24.1279
lfoot -25.9661 29.2517
ltoes 3.24191
556
root 22.843 15.4398 -0.0617161 -535.859 -75.5564 534.207
lowerback 6.49052 1.65718 -4.2034
upperback 3.32608 1.81934 -1.9067
thorax -0.276297 0.820687 0.272968
lowerneck -3.21088 6.05329 8.90398
upperneck -1.75347 7.72349 -2.65866
head 0.468245 3.78711 -2.2215
rclavicle -1.09332e-014 4.77083e-015
rhumerus -35.4308 17.8591 -90.3195
rradius 45.1952
rwrist -24.0519
rhand -14.8107 -0.996787
rfingers 7.12502
rthumb 11.3473 -30.6698
lclavicle -1.09332e-014 4.77083e-015
lhumerus -26.0759 7.46851 79.4955
lradius 22.9119
lwrist -5.88489
lhand -23.9644 6.31005
lfingers 7.12502
lthumb 2.51173 36.275
rfemur -9.52875 3.85397 17.6163
rtibia 41.7848
rfoot -17.5336 -14.8758
rtoes -43.3774
lfemur -5.44649 -15.8143 -23.0292
ltibia 23.6409
lfoot -25.8167 29.4618
ltoes 3.05789
557
root 22.7968 15.4443 -0.0291963 -536.216 -75.7211 534.378
lowerback 6.64278 1.65307 -4.37335
upperback 3.42215 1.79261 -1.90416
thorax -0.265367 0.801552 0.369449
lowerneck -3.22418 5.99532 8.82251
upperneck -1.65923 7.6477 -2.54404
head 0.487117 3.75231 -2.16993
rclavicle -2.62396e-014 -6.36111e-015
rhumerus -35.0798 18.1255 -90.5945
rradius 45.505
rwrist -23.6959
rhand -14.5416 -0.861337
rfingers 7.12502
rthumb 11.6068 -30.5199
lclavicle -2.62396e-014 -6.36111e-015
lhumerus -25.2453 4.65599 81.2091
lradius 23.1367
lwrist -5.53817
lhand -23.9332 6.27598
lfingers 7.12502
lthumb 2.54188 36.2406
rfemur -10.3815 3.0933 17.5893
rtibia 43.2993
rfoot -17.2066 -15.6948
rtoes -43.55
lfemur -4.83458 -16.0648 -23.2934
ltibia 23.2131
lfoot -25.8031 29.6154
ltoes 3.29921
558
root 22.7494 15.4495 -0.00114083 -536.787 -75.9153 534.803
lowerback 6.76101 1.64194 -4.4578
upperback 3.50104 1.7648 -1.88115
thorax -0.25134 0.783594 0.440155
lowerneck -3.2535 5.93791 8.74642
upperneck -1.53908 7.57091 -2.43724
head 0.51765 3.71757 -2.12108
rclavicle -2.98177e-014 1.66979e-014
rhumerus -34.777 18.3592 -90.8625
rradius 45.8324
rwrist -23.458
rhand -14.2948 -0.699394
rfingers 7.12502
rthumb 11.8448 -30.3444
lclavicle -2.98177e-014 1.66979e-014
lhumerus -24.5079 1.75504 82.863
lradius 23.4511
lwrist -5.11794
lhand -23.5561 6.47491
lfingers 7.12502
lthumb 2.90606 36.4349
rfemur -11.1732 2.48523 17.6792
rtibia 44.518
rfoot -17.1568 -16.5999
rtoes -43.2646
lfemur -4.26537 -16.3636 -23.4689
ltibia 22.8266
lfoot -25.9048 29.7156
ltoes 3.88911
559
root 22.7003 15.4555 0.0228855 -537.38 -76.1459 535.3
lowerback 6.83474 1.62155 -4.49698
upperback 3.5547 1.73107 -1.85059
thorax -0.237346 0.76425 0.494719
lowerneck -3.28889 5.87534 8.68399
upperneck -1.40593 7.48624 -2.35062
head 0.554564 3.67916 -2.08119
rclavicle -3.08116e-015 2.38542e-014
rhumerus -34.5413 18.5641 -91.126
rradius 46.1792
rwrist -23.3354
rhand -14.1171 -0.523326
rfingers 7.12502
rthumb 12.0162 -30.1584
lclavicle -3.08116e-015 2.38542e-014
lhumerus -23.8723 -1.1278 84.4286
lradius 23.8718
lwrist -4.63872
lhand -22.7007 7.14126
lfingers 7.12502
lthumb 3.73217 37.0883
rfemur -11.9275 2.02414 17.8176
rtibia 45.4235
rfoot -17.3823 -17.4746
rtoes -42.4777
lfemur -3.75514 -16.6878 -23.5969
ltibia 22.463
lfoot -26.0376 29.7816
ltoes 4.6635
560
root 22.6498 15.4624 0.0429824 -537.903 -76.4128 535.782
lowerback 6.86909 1.59243 -4.514
upperback 3.58287 1.69017 -1.81899
thorax -0.226929 0.742657 0.539212
lowerneck -3.3212 5.80762 8.63897
upperneck -1.28133 7.39452 -2.28962
head 0.589871 3.63692 -2.05327
rclavicle 1.98785e-015 -3.4191e-014
rhumerus -34.373 18.7382 -91.3797
rradius 46.5409
rwrist -23.3076
rhand -14.0349 -0.361888
rfingers 7.12502
rthumb 12.0955 -29.9923
lclavicle 1.98785e-015 -3.4191e-014
lhumerus -23.3383 -3.93663 85.8945
lradius 24.4148
lwrist -4.07385
lhand -21.6981 7.41024
lfingers 7.12502
lthumb 4.70033 37.3381
rfemur -12.6575 1.7192 17.9679
rtibia 46.0075
rfoot -17.8343 -18.2569
rtoes -41.2718
lfemur -3.30738 -17.0016 -23.6958
ltibia 22.1103
lfoot -26.1016 29.8436
ltoes 5.26083
561
root 22.599 15.4698 0.0588108 -538.357 -76.7077 536.245
lowerback 6.87524 1.55831 -4.51649
upperback 3.5929 1.64569 -1.78835
thorax -0.219018 0.720218 0.57535
lowerneck -3.35543 5.74738 8.63428
upperneck -1.19114 7.31139 -2.27934
head 0.619151 3.59775 -2.04926
rclavicle -2.48481e-015 -4.77083e-015
rhumerus -34.252 18.8775 -91.6172
rradius 46.9105
rwrist -23.3507
rhand -14.0011 -0.253371
rfingers 7.12502
rthumb 12.1281 -29.8818
lclavicle -2.48481e-015 -4.77083e-015
lhumerus -22.8928 -6.66487 87.26
lradius 25.0893
lwrist -3.38812
lhand -20.8092 7.52732
lfingers 7.12502
lthumb 5.55852 37.4344
rfemur -13.3737 1.58727 18.1248
rtibia 46.2668
rfoot -18.3922 -18.9511
rtoes -39.8669
lfemur -2.92408 -17.2779 -23.7614
ltibia 21.7658
lfoot -26.0581 29.9063
ltoes 5.60343
